<?xml version="1.0" encoding="utf-8"?>
<!-- Generator: Adobe Illustrator 23.0.5, SVG Export Plug-In . SVG Version: 6.00 Build 0)  -->
<svg version="1.1" id="color" xmlns="http://www.w3.org/2000/svg" xmlns:xlink="http://www.w3.org/1999/xlink" x="0px" y="0px"
	 viewBox="0 0 512 512" style="enable-background:new 0 0 512 512;" xml:space="preserve">
<style type="text/css">
	.st0{fill:#ECEFF1;}
	.st1{fill:#CDD0D2;}
	.st2{fill:#4CAF50;}
	.st3{fill:#FFFFFF;}
	.st4{fill:#429846;}
	.st5{fill:#DEDEDE;}
	.st6{display:none;fill:#0F1027;}
	.st7{font-family:'Nunito-SemiBold';}
	.st8{font-size:86px;}
	.st9{fill:#0F1027;}
	.st10{font-size:170px;}
</style>
<path class="st0" d="M368,330.7c-102.8,0-186.7-83.8-186.7-186.7c0-57.8,26.5-109.7,68.1-144H58.7C26.2,0,0,26.2,0,58.7v394.7
	C0,485.8,26.2,512,58.7,512H368c32.4,0,58.7-26.2,58.7-58.7V321.3C408.3,327.3,388.5,330.7,368,330.7L368,330.7z"/>
<path class="st1" d="M213.3,0H58.7C26.2,0,0,26.2,0,58.7v394.7C0,485.8,26.2,512,58.7,512h154.7V248.3c-20.2-29.8-32-65.7-32-104.3
	s11.8-74.5,32-104.4V0z"/>
<path class="st2" d="M368,288c-79.4,0-144-64.6-144-144S288.6,0,368,0s144,64.6,144,144S447.4,288,368,288z"/>
<path class="st3" d="M346.7,208c-5.7,0-11.1-2.2-15.1-6.3l-42.7-42.7c-8.3-8.3-8.3-21.8,0-30.2c8.3-8.3,21.8-8.3,30.2,0l26.5,26.5
	l59.6-68.2c7.8-8.8,21.2-9.8,30.1-2s9.8,21.2,2,30.1l-74.7,85.3c-3.9,4.5-9.4,7.1-15.3,7.3L346.7,208z"/>
<path class="st4" d="M368,0c-79.4,0-144,64.6-144,144s64.6,144,144,144v-93.3l-5.3,6c-3.9,4.4-9.4,7.1-15.3,7.3l-0.7,0
	c-5.7,0-11.1-2.2-15.1-6.3l-42.7-42.7c-8.3-8.3-8.3-21.8,0-30.2c4.2-4.2,9.6-6.3,15.1-6.3c5.5,0,10.9,2.1,15.1,6.3l26.5,26.5
	l22.4-25.6V0z"/>
<path class="st5" d="M304,122.7c-5.5,0-10.9,2.1-15.1,6.3c-8.3,8.3-8.3,21.8,0,30.2l42.7,42.7c4,4,9.4,6.3,15.1,6.3l0.7,0
	c5.9-0.2,11.5-2.8,15.3-7.3l5.3-6v-64.8l-22.4,25.6l-26.5-26.5C314.9,124.8,309.5,122.7,304,122.7L304,122.7z"/>
<text transform="matrix(1 0 0 1 126.2257 462)" class="st6 st7 st8">Word</text>
<text transform="matrix(1 0 0 1 106.6665 462)" class="st9 st7 st10">Ppt</text>
<text transform="matrix(1 0 0 1 106.6669 469.9366)" class="st6 st7 st10">Pdf</text>
</svg>
